<svg width="42" height="42" viewBox="0 0 42 42" fill="none" xmlns="http://www.w3.org/2000/svg">
<g clip-path="url(#clip0)">
<g filter="url(#filter0_d)">
<rect width="42" height="39" rx="5" fill="#0072E5"/>
</g>
<path d="M13.246 12.9375H11.5985C11.5712 13.2383 11.5119 13.5049 11.4208 13.7373C11.3296 13.9697 11.2089 14.1634 11.0585 14.3184C10.9035 14.4779 10.7167 14.5986 10.4979 14.6807C10.2792 14.7627 10.0285 14.8037 9.74598 14.8037C9.509 14.8037 9.29708 14.7718 9.11023 14.708C8.92794 14.6396 8.76616 14.5417 8.62488 14.4141C8.48816 14.2956 8.36967 14.1543 8.26941 13.9902C8.17371 13.8262 8.09396 13.6439 8.03016 13.4434C7.94812 13.2018 7.8866 12.9352 7.84559 12.6436C7.80913 12.3519 7.7909 12.0397 7.7909 11.707V10.333C7.7909 10.0641 7.80457 9.80208 7.83191 9.54688C7.86381 9.28711 7.90939 9.04329 7.96863 8.81543C8.04611 8.55566 8.14409 8.32096 8.26258 8.11133C8.38562 7.89714 8.53602 7.72168 8.71375 7.58496C8.85047 7.48014 9.00314 7.39811 9.17176 7.33887C9.34493 7.27962 9.53862 7.25 9.75281 7.25C10.0582 7.25 10.3202 7.29557 10.5389 7.38672C10.7577 7.47331 10.9423 7.60091 11.0927 7.76953C11.2385 7.93815 11.3524 8.14323 11.4345 8.38477C11.521 8.62174 11.578 8.88835 11.6054 9.18457H13.246C13.1958 8.68783 13.0842 8.23665 12.911 7.83105C12.7424 7.42546 12.51 7.0791 12.2137 6.79199C11.9221 6.50944 11.5689 6.29069 11.1542 6.13574C10.744 5.98079 10.2769 5.90332 9.75281 5.90332C9.36544 5.90332 9.0077 5.95573 8.67957 6.06055C8.356 6.16536 8.05978 6.3112 7.7909 6.49805C7.50835 6.70312 7.2577 6.9515 7.03895 7.24316C6.82475 7.53027 6.6493 7.85156 6.51258 8.20703C6.38497 8.52604 6.28927 8.86556 6.22547 9.22559C6.16167 9.58561 6.12977 9.95931 6.12977 10.3467V11.707C6.12977 12.1126 6.16395 12.5023 6.2323 12.876C6.30066 13.2497 6.39865 13.596 6.52625 13.915C6.65841 14.2386 6.8202 14.5371 7.0116 14.8105C7.20756 15.0794 7.43543 15.3096 7.6952 15.501C7.96408 15.7061 8.26941 15.8656 8.61121 15.9795C8.95756 16.0889 9.33582 16.1436 9.74598 16.1436C10.2473 16.1436 10.703 16.0684 11.1132 15.918C11.5279 15.763 11.8856 15.5443 12.1864 15.2617C12.4826 14.9837 12.7219 14.6488 12.9042 14.2568C13.0865 13.8604 13.2004 13.4206 13.246 12.9375ZM24.0615 11.6865V10.374C24.0615 9.95931 24.0251 9.56055 23.9521 9.17773C23.8792 8.79036 23.7699 8.42806 23.624 8.09082C23.4919 7.77637 23.3278 7.48698 23.1318 7.22266C22.9359 6.95833 22.7057 6.72819 22.4414 6.53223C22.1771 6.33626 21.8786 6.18359 21.5459 6.07422C21.2132 5.96484 20.8486 5.91016 20.4521 5.91016C20.0602 5.91016 19.7002 5.96484 19.3721 6.07422C19.0485 6.17904 18.7591 6.32943 18.5039 6.52539C18.2396 6.72591 18.0094 6.96289 17.8135 7.23633C17.6221 7.50521 17.4603 7.80143 17.3281 8.125C17.1914 8.46224 17.0889 8.81999 17.0205 9.19824C16.9521 9.5765 16.918 9.96842 16.918 10.374V11.6865C16.918 12.0739 16.9499 12.4521 17.0137 12.8213C17.0775 13.1859 17.1709 13.5299 17.2939 13.8535C17.4261 14.1908 17.5924 14.5007 17.793 14.7832C17.9935 15.0658 18.2259 15.3073 18.4902 15.5078C18.75 15.7038 19.0439 15.8587 19.3721 15.9727C19.7048 16.082 20.0693 16.1367 20.4658 16.1367C20.8486 16.1367 21.2018 16.0843 21.5254 15.9795C21.849 15.8747 22.1406 15.7311 22.4004 15.5488C22.6738 15.3483 22.9154 15.109 23.125 14.8311C23.3346 14.5485 23.5101 14.2409 23.6514 13.9082C23.7835 13.5755 23.8838 13.2223 23.9521 12.8486C24.0251 12.4749 24.0615 12.0876 24.0615 11.6865ZM22.4072 10.3604V11.6865C22.4072 11.9281 22.3936 12.1696 22.3662 12.4111C22.3434 12.6527 22.3024 12.8828 22.2432 13.1016C22.1794 13.3522 22.0928 13.5824 21.9834 13.792C21.8786 13.9971 21.7464 14.1748 21.5869 14.3252C21.4502 14.4574 21.2861 14.5622 21.0947 14.6396C20.9079 14.7171 20.6982 14.7559 20.4658 14.7559C20.2243 14.7559 20.0101 14.7171 19.8232 14.6396C19.641 14.5576 19.4792 14.4482 19.3379 14.3115C19.1921 14.1657 19.0667 13.988 18.9619 13.7783C18.8617 13.5641 18.7819 13.334 18.7227 13.0879C18.668 12.8691 18.6292 12.6413 18.6064 12.4043C18.5837 12.1628 18.5723 11.9235 18.5723 11.6865V10.3604C18.5723 10.1143 18.5837 9.87044 18.6064 9.62891C18.6338 9.38281 18.6748 9.15039 18.7295 8.93164C18.7887 8.67643 18.873 8.44629 18.9824 8.24121C19.0918 8.03158 19.2262 7.85384 19.3857 7.70801C19.5179 7.5804 19.6729 7.48242 19.8506 7.41406C20.0283 7.34115 20.2288 7.30469 20.4521 7.30469C20.6846 7.30469 20.8919 7.34115 21.0742 7.41406C21.2565 7.48698 21.4183 7.58724 21.5596 7.71484C21.7191 7.86068 21.8535 8.03841 21.9629 8.24805C22.0768 8.45312 22.168 8.68099 22.2363 8.93164C22.2956 9.15039 22.3389 9.38053 22.3662 9.62207C22.3936 9.86361 22.4072 10.1097 22.4072 10.3604ZM21.1152 3.39453L19.8438 5.26074H21.1016L22.9678 3.39453H21.1152ZM28.0275 16H30.5431C30.9988 16 31.4249 15.9453 31.8214 15.8359C32.2224 15.7266 32.587 15.5693 32.9152 15.3643C33.2068 15.1774 33.4711 14.9518 33.7081 14.6875C33.9497 14.4232 34.1547 14.1292 34.3234 13.8057C34.4965 13.473 34.6287 13.1061 34.7198 12.7051C34.8155 12.2995 34.8634 11.8711 34.8634 11.4199V10.6406C34.8634 10.1712 34.8133 9.72917 34.713 9.31445C34.6127 8.89974 34.4715 8.51921 34.2892 8.17285C34.1114 7.84017 33.8904 7.53939 33.6261 7.27051C33.3663 7.00163 33.0678 6.77832 32.7306 6.60059C32.4207 6.42741 32.0766 6.29297 31.6984 6.19727C31.3201 6.09701 30.9168 6.04688 30.4884 6.04688H28.0275V16ZM29.6886 7.38672H30.4884C30.7527 7.38672 30.9988 7.41634 31.2267 7.47559C31.4545 7.53483 31.6596 7.61686 31.8419 7.72168C32.0926 7.86296 32.309 8.04525 32.4913 8.26855C32.6736 8.49186 32.8195 8.74479 32.9288 9.02734C33.0154 9.25521 33.0815 9.50358 33.1271 9.77246C33.1726 10.0413 33.1954 10.3262 33.1954 10.627V11.4199C33.1954 11.7253 33.1726 12.0124 33.1271 12.2812C33.0815 12.5501 33.0154 12.7985 32.9288 13.0264C32.8286 13.2907 32.701 13.5277 32.546 13.7373C32.3911 13.9469 32.2111 14.1201 32.006 14.2568C31.81 14.389 31.589 14.4915 31.3429 14.5645C31.1014 14.6328 30.8348 14.667 30.5431 14.667H29.6886V7.38672ZM6.77234 24.0469V25.4072H8.85047V32.6465H6.77234V34H12.6376V32.6465H10.5116V25.4072H12.6376V24.0469H6.77234ZM23.9863 32.7764L23.9727 28.9688H20.5547V30.2471H22.3594L22.3525 32.2363C22.2796 32.332 22.1816 32.4163 22.0586 32.4893C21.9355 32.5576 21.8011 32.6146 21.6553 32.6602C21.5049 32.7057 21.3477 32.7399 21.1836 32.7627C21.0195 32.7809 20.8577 32.79 20.6982 32.79C20.4294 32.7855 20.1878 32.7399 19.9736 32.6533C19.764 32.5667 19.5794 32.4437 19.4199 32.2842C19.2923 32.1611 19.1807 32.0199 19.085 31.8604C18.9938 31.7008 18.9141 31.5299 18.8457 31.3477C18.7591 31.1061 18.693 30.8441 18.6475 30.5615C18.6064 30.279 18.5859 29.9805 18.5859 29.666V28.3809C18.5859 28.112 18.6019 27.8499 18.6338 27.5947C18.6657 27.3395 18.7158 27.1003 18.7842 26.877C18.8617 26.6217 18.9596 26.3916 19.0781 26.1865C19.2012 25.9769 19.3447 25.7992 19.5088 25.6533C19.6501 25.5348 19.8096 25.4414 19.9873 25.373C20.165 25.3001 20.3587 25.2637 20.5684 25.2637C20.8555 25.2637 21.1038 25.3047 21.3135 25.3867C21.5277 25.4688 21.7077 25.5872 21.8535 25.7422C21.9902 25.888 22.0996 26.068 22.1816 26.2822C22.2637 26.4919 22.3252 26.7266 22.3662 26.9863H23.9795C23.9339 26.5124 23.8268 26.0863 23.6582 25.708C23.4896 25.3252 23.2594 24.9993 22.9678 24.7305C22.6807 24.4661 22.3343 24.2633 21.9287 24.1221C21.5231 23.9808 21.0583 23.9102 20.5342 23.9102C20.1468 23.9102 19.7868 23.9648 19.4541 24.0742C19.126 24.1836 18.8252 24.3385 18.5518 24.5391C18.3011 24.7305 18.0778 24.9561 17.8818 25.2158C17.6859 25.4756 17.5173 25.7627 17.376 26.0771C17.2301 26.4098 17.1185 26.7721 17.041 27.1641C16.9681 27.556 16.9294 27.9661 16.9248 28.3945V29.666C16.9294 30.1081 16.9727 30.5296 17.0547 30.9307C17.1367 31.3317 17.2575 31.6986 17.417 32.0312C17.5583 32.3503 17.7337 32.6396 17.9434 32.8994C18.1576 33.1592 18.3991 33.3802 18.668 33.5625C18.9368 33.7448 19.2376 33.8861 19.5703 33.9863C19.903 34.0866 20.2607 34.1367 20.6436 34.1367C21.0583 34.1367 21.4479 34.0934 21.8125 34.0068C22.1771 33.9248 22.5143 33.8086 22.8242 33.6582C23.0703 33.5397 23.2913 33.4053 23.4873 33.2549C23.6833 33.0999 23.8496 32.9404 23.9863 32.7764ZM34.8497 29.6865V28.374C34.8497 27.9593 34.8133 27.5605 34.7404 27.1777C34.6674 26.7904 34.5581 26.4281 34.4122 26.0908C34.2801 25.7764 34.116 25.487 33.92 25.2227C33.7241 24.9583 33.4939 24.7282 33.2296 24.5322C32.9653 24.3363 32.6668 24.1836 32.3341 24.0742C32.0014 23.9648 31.6368 23.9102 31.2404 23.9102C30.8484 23.9102 30.4884 23.9648 30.1603 24.0742C29.8367 24.179 29.5473 24.3294 29.2921 24.5254C29.0278 24.7259 28.7976 24.9629 28.6017 25.2363C28.4103 25.5052 28.2485 25.8014 28.1163 26.125C27.9796 26.4622 27.8771 26.82 27.8087 27.1982C27.7404 27.5765 27.7062 27.9684 27.7062 28.374V29.6865C27.7062 30.0739 27.7381 30.4521 27.8019 30.8213C27.8657 31.1859 27.9591 31.5299 28.0821 31.8535C28.2143 32.1908 28.3807 32.5007 28.5812 32.7832C28.7817 33.0658 29.0141 33.3073 29.2784 33.5078C29.5382 33.7038 29.8321 33.8587 30.1603 33.9727C30.493 34.082 30.8575 34.1367 31.254 34.1367C31.6368 34.1367 31.99 34.0843 32.3136 33.9795C32.6372 33.8747 32.9288 33.7311 33.1886 33.5488C33.462 33.3483 33.7036 33.109 33.9132 32.8311C34.1228 32.5485 34.2983 32.2409 34.4396 31.9082C34.5717 31.5755 34.672 31.2223 34.7404 30.8486C34.8133 30.4749 34.8497 30.0876 34.8497 29.6865ZM33.1954 28.3604V29.6865C33.1954 29.9281 33.1818 30.1696 33.1544 30.4111C33.1316 30.6527 33.0906 30.8828 33.0314 31.1016C32.9676 31.3522 32.881 31.5824 32.7716 31.792C32.6668 31.9971 32.5346 32.1748 32.3751 32.3252C32.2384 32.4574 32.0743 32.5622 31.8829 32.6396C31.6961 32.7171 31.4864 32.7559 31.254 32.7559C31.0125 32.7559 30.7983 32.7171 30.6114 32.6396C30.4292 32.5576 30.2674 32.4482 30.1261 32.3115C29.9803 32.1657 29.8549 31.988 29.7501 31.7783C29.6499 31.5641 29.5701 31.334 29.5109 31.0879C29.4562 30.8691 29.4174 30.6413 29.3946 30.4043C29.3719 30.1628 29.3605 29.9235 29.3605 29.6865V28.3604C29.3605 28.1143 29.3719 27.8704 29.3946 27.6289C29.422 27.3828 29.463 27.1504 29.5177 26.9316C29.5769 26.6764 29.6613 26.4463 29.7706 26.2412C29.88 26.0316 30.0144 25.8538 30.1739 25.708C30.3061 25.5804 30.4611 25.4824 30.6388 25.4141C30.8165 25.3411 31.017 25.3047 31.2404 25.3047C31.4728 25.3047 31.6801 25.3411 31.8624 25.4141C32.0447 25.487 32.2065 25.5872 32.3478 25.7148C32.5073 25.8607 32.6417 26.0384 32.7511 26.248C32.865 26.4531 32.9562 26.681 33.0245 26.9316C33.0838 27.1504 33.1271 27.3805 33.1544 27.6221C33.1818 27.8636 33.1954 28.1097 33.1954 28.3604Z" fill="white"/>
</g>
<defs>
<filter id="filter0_d" x="-1" y="0" width="44" height="43" filterUnits="userSpaceOnUse" color-interpolation-filters="sRGB">
<feFlood flood-opacity="0" result="BackgroundImageFix"/>
<feColorMatrix in="SourceAlpha" type="matrix" values="0 0 0 0 0 0 0 0 0 0 0 0 0 0 0 0 0 0 127 0"/>
<feOffset dy="3"/>
<feGaussianBlur stdDeviation="0.5"/>
<feColorMatrix type="matrix" values="0 0 0 0 0.486275 0 0 0 0 0.486275 0 0 0 0 0.486275 0 0 0 0.68 0"/>
<feBlend mode="normal" in2="BackgroundImageFix" result="effect1_dropShadow"/>
<feBlend mode="normal" in="SourceGraphic" in2="effect1_dropShadow" result="shape"/>
</filter>
<clipPath id="clip0">
<rect width="42" height="42" fill="white"/>
</clipPath>
</defs>
</svg>
