<svg width="42" height="39" fill="none" xmlns="http://www.w3.org/2000/svg"><g filter="url(#filter0_d)" clip-path="url(#clip0)"><path d="M12.54 23.74L6.3 29.96A3.95 3.95 0 013.67 31a3.7 3.7 0 01-2.6-1.06A3.6 3.6 0 010 27.37v-.52l2.1-15.3A9.45 9.45 0 0111.55 3h18.9c4.96 0 9 3.75 9.45 8.55l2.1 15.3v.52a3.6 3.6 0 01-1.08 2.57 3.7 3.7 0 01-2.6 1.06c-1 0-1.93-.41-2.62-1.04l-6.24-6.22H12.54zM10.5 7.14v4.16H6.3v2.07h4.2v4.15h2.1v-4.15h4.2V11.3h-4.2V7.15h-2.1zm19.95 0c-.42 0-.82.17-1.11.46a1.55 1.55 0 000 2.2 1.59 1.59 0 002.22 0 1.55 1.55 0 000-2.2c-.3-.29-.7-.45-1.11-.45zm-3.68 3.64a1.55 1.55 0 00-1.11 2.66 1.59 1.59 0 002.23 0 1.55 1.55 0 000-2.2c-.3-.3-.7-.46-1.12-.46zm7.36 0a1.55 1.55 0 00-1.11 2.66 1.59 1.59 0 002.22 0 1.55 1.55 0 000-2.2c-.3-.3-.7-.46-1.12-.46zm-3.68 3.63a1.55 1.55 0 00-1.11 2.66 1.59 1.59 0 002.22 0 1.55 1.55 0 000-2.2c-.3-.3-.7-.46-1.11-.46z" fill="#0072E5"/></g><defs><clipPath id="clip0"><path fill="#fff" d="M0 0h42v39H0z"/></clipPath><filter id="filter0_d" x="-1" y="3" width="44" height="32" filterUnits="userSpaceOnUse" color-interpolation-filters="sRGB"><feFlood flood-opacity="0" result="BackgroundImageFix"/><feColorMatrix in="SourceAlpha" values="0 0 0 0 0 0 0 0 0 0 0 0 0 0 0 0 0 0 127 0"/><feOffset dy="3"/><feGaussianBlur stdDeviation=".5"/><feColorMatrix values="0 0 0 0 0 0 0 0 0 0 0 0 0 0 0 0 0 0 0.25 0"/><feBlend in2="BackgroundImageFix" result="effect1_dropShadow"/><feBlend in="SourceGraphic" in2="effect1_dropShadow" result="shape"/></filter></defs></svg>